<?xml version="1.0" standalone="no"?>
<!DOCTYPE svg PUBLIC "-//W3C//DTD SVG 20010904//EN"
 "http://www.w3.org/TR/2001/REC-SVG-20010904/DTD/svg10.dtd">
<svg version="1.0" xmlns="http://www.w3.org/2000/svg"
 width="40" height="40" viewBox="0 0 1266.000000 1146.000000"
 preserveAspectRatio="xMidYMid meet">
<g transform="translate(0.000000,1146.000000) scale(0.100000,-0.100000)"
fill="black" stroke="white">
<path d="M0 5730 l0 -5730 6330 0 6330 0 0 5730 0 5730 -6330 0 -6330 0 0
-5730z m8165 4411 c114 -25 241 -91 328 -171 78 -72 161 -190 178 -254 6 -22
17 -63 24 -91 22 -78 31 -175 22 -230 -36 -227 -75 -316 -193 -437 -87 -89
-208 -153 -366 -193 -171 -43 -445 45 -592 191 -57 56 -75 83 -143 217 -29 56
-63 209 -63 283 0 93 41 259 75 304 6 8 22 37 36 65 34 70 149 183 233 229
117 64 227 95 331 95 50 0 108 -4 130 -8z m-2562 -441 c5 -19 12 -71 17 -115
9 -81 15 -127 51 -360 20 -132 30 -202 49 -355 6 -47 18 -119 26 -160 7 -41
19 -115 25 -165 20 -173 29 -231 44 -310 8 -44 22 -134 30 -200 8 -66 21 -165
30 -220 15 -90 28 -179 55 -360 5 -33 16 -105 25 -160 30 -185 47 -290 55
-350 5 -33 16 -103 25 -155 9 -52 20 -131 25 -175 6 -44 14 -100 20 -125 8
-38 35 -199 80 -475 5 -33 17 -112 25 -175 9 -63 29 -185 45 -270 15 -85 33
-191 40 -235 6 -44 17 -114 25 -155 27 -150 45 -257 60 -355 15 -94 34 -206
55 -335 5 -30 16 -93 25 -140 8 -47 22 -130 30 -185 8 -55 22 -136 30 -180 8
-44 19 -109 24 -145 27 -174 43 -270 53 -320 6 -30 14 -80 18 -110 7 -50 59
-348 80 -460 18 -92 32 -137 71 -217 32 -68 49 -91 96 -128 81 -63 125 -76
278 -82 126 -5 133 -5 182 20 58 30 82 59 109 132 18 48 19 129 22 2213 1
1483 -1 2169 -8 2182 -6 11 -22 23 -35 26 l-24 6 -3 401 c-2 221 1 408 6 415
7 9 155 12 686 12 534 0 679 -3 681 -12 2 -7 3 -194 1 -414 l-2 -402 -25 -6
c-16 -4 -27 -16 -32 -36 -5 -17 -6 -981 -3 -2143 5 -1919 7 -2116 22 -2158 36
-103 94 -186 147 -213 60 -30 261 -61 496 -76 149 -10 181 -16 214 -41 13 -11
31 -19 39 -19 31 0 -18 -38 -80 -61 -66 -24 -77 -39 -58 -74 7 -13 9 -28 6
-34 -9 -14 -4603 -15 -4625 -2 -11 7 -14 33 -14 109 1 55 4 105 7 111 5 7 46
11 104 11 98 0 294 30 335 51 30 16 117 101 117 115 0 6 6 17 14 23 8 7 22 29
32 49 24 50 20 215 -7 354 -11 57 -27 144 -34 193 -8 50 -21 137 -30 195 -33
211 -46 297 -55 370 -5 41 -16 116 -24 165 -30 181 -36 222 -51 344 -14 119
-25 151 -48 151 -6 0 -58 -46 -116 -103 -58 -56 -155 -145 -216 -196 -60 -52
-124 -108 -141 -125 -16 -17 -61 -58 -100 -91 -332 -285 -699 -653 -859 -860
-8 -11 -47 -60 -85 -108 -98 -125 -133 -201 -138 -302 -3 -71 -1 -84 20 -115
49 -74 150 -99 428 -109 l175 -6 5 -29 c3 -15 3 -67 0 -115 l-5 -86 -1204 -3
c-933 -2 -1207 1 -1219 10 -11 10 -13 33 -10 108 2 52 7 101 11 108 6 9 61 12
216 12 296 0 464 27 636 100 116 50 138 61 179 89 25 17 48 31 51 31 10 0 99
68 158 120 89 80 237 251 355 410 159 217 216 288 367 464 53 61 263 315 282
341 9 12 125 148 133 155 3 3 25 28 49 55 24 28 69 77 100 110 31 33 83 92
116 130 66 77 393 414 574 590 l114 111 -22 140 c-12 76 -28 177 -37 224 -8
47 -19 112 -24 145 -5 33 -16 101 -25 150 -21 121 -44 265 -55 350 -5 39 -20
138 -33 220 -14 83 -30 191 -37 240 -7 50 -18 122 -25 160 -8 39 -21 129 -30
200 -17 137 -40 277 -54 335 -5 19 -14 69 -19 110 -6 41 -20 127 -32 190 -12
63 -31 181 -44 263 -20 131 -35 181 -51 166 -2 -3 -14 -68 -25 -145 -12 -76
-25 -155 -30 -174 -16 -65 -32 -144 -46 -225 -7 -44 -25 -129 -39 -190 -15
-60 -32 -139 -40 -175 -7 -36 -25 -114 -39 -175 -32 -131 -54 -240 -65 -316
-5 -30 -13 -64 -19 -75 -5 -10 -17 -50 -26 -89 -37 -164 -49 -216 -71 -315
-14 -58 -34 -143 -45 -190 -60 -244 -120 -505 -120 -519 0 -9 -11 -52 -24 -96
-13 -44 -32 -116 -41 -160 -9 -44 -23 -102 -30 -130 -8 -27 -21 -84 -30 -125
-9 -41 -21 -86 -26 -100 -13 -37 -61 -220 -66 -255 -10 -72 -156 -529 -195
-614 -16 -35 -38 -73 -50 -85 -11 -11 -28 -38 -39 -58 -37 -71 -212 -329 -250
-367 -8 -9 -37 -42 -63 -73 -72 -86 -88 -77 -74 40 23 180 56 357 88 468 10
34 28 103 39 155 12 52 28 117 36 144 8 28 22 84 31 125 9 41 25 109 36 150
11 41 26 105 34 142 7 37 20 84 29 105 9 20 25 78 36 127 11 50 30 125 41 166
11 41 23 93 27 115 4 22 26 110 49 195 56 213 83 318 92 365 4 22 19 81 34
130 14 50 30 106 35 125 5 19 21 78 36 130 14 52 30 113 35 135 5 22 15 65 23
95 8 30 25 96 37 145 12 50 32 133 45 185 13 52 31 131 40 175 10 44 23 100
30 125 8 25 21 81 31 125 10 44 26 106 36 138 10 31 29 108 42 170 51 240 79
363 87 382 4 11 23 88 43 170 19 83 43 184 54 225 10 41 26 109 35 150 9 41
24 108 33 148 26 114 16 226 -29 331 -87 202 -259 387 -438 470 -53 25 -227
81 -251 81 -9 0 -21 7 -26 15 -10 18 12 205 31 262 l12 38 335 7 c375 8 984
33 1250 52 96 7 222 12 280 12 l104 -1 9 -35z"/>
</g>
</svg>
